{
  "accessors" : [ {
    "bufferView" : 0,
    "byteOffset" : 0,
    "componentType" : 5123,
    "count" : 96774,
    "type" : "SCALAR",
    "max" : [ 16383 ],
    "min" : [ 0 ]
  }, {
    "bufferView" : 1,
    "byteOffset" : 0,
    "componentType" : 5126,
    "count" : 16384,
    "type" : "VEC3",
    "max" : [ 127.0, 0.0, 0.0 ],
    "min" : [ 0.0, 0.0, -127.0 ]
  }, {
    "bufferView" : 2,
    "byteOffset" : 0,
    "componentType" : 5126,
    "count" : 16384,
    "type" : "VEC3",
    "max" : [ 0.0, -1.0, 0.0 ],
    "min" : [ 0.0, -1.0, 0.0 ]
  }, {
    "bufferView" : 3,
    "byteOffset" : 0,
    "componentType" : 5126,
    "count" : 16384,
    "type" : "VEC2",
    "max" : [ 0.9921875, 0.9921875 ],
    "min" : [ 0.0, 0.0 ]
  }, {
    "bufferView" : 4,
    "byteOffset" : 0,
    "componentType" : 5126,
    "count" : 16384,
    "type" : "SCALAR",
    "max" : [ 16383.0 ],
    "min" : [ 0.0 ]
  } ],
  "asset" : {
    "generator" : "JglTF from https://github.com/javagl/JglTF",
    "version" : "2.0"
  },
  "buffers" : [ {
    "uri" : "data:application/gltf-buffer;base64,",
    "byteLength" : 783372
  } ],
  "bufferViews" : [ {
    "name" : "indices",
    "buffer" : 0,
    "byteOffset" : 0,
    "byteLength" : 193548,
    "target" : 34963
  }, {
    "name" : "positions",
    "buffer" : 0,
    "byteOffset" : 193548,
    "byteLength" : 196608,
    "byteStride" : 12,
    "target" : 34962
  }, {
    "name" : "normals",
    "buffer" : 0,
    "byteOffset" : 390156,
    "byteLength" : 196608,
    "byteStride" : 12,
    "target" : 34962
  }, {
    "name" : "texcoords",
    "buffer" : 0,
    "byteOffset" : 586764,
    "byteLength" : 131072,
    "byteStride" : 8,
    "target" : 34962
  }, {
    "name" : "batchIds",
    "buffer" : 0,
    "byteOffset" : 717836,
    "byteLength" : 65536,
    "byteStride" : 4,
    "target" : 34962
  } ],
  "materials" : [ {
    "name" : "default-material",
    "pbrMetallicRoughness" : {
      "baseColorFactor" : [ 1.0, 1.0, 1.0, 1.0 ],
      "metallicFactor" : 0.0,
      "roughnessFactor" : 0.5
    },
    "alphaMode" : "OPAQUE",
    "doubleSided" : false
  }, {
    "name" : "default-material",
    "pbrMetallicRoughness" : {
      "baseColorFactor" : [ 1.0, 1.0, 1.0, 1.0 ],
      "metallicFactor" : 0.0,
      "roughnessFactor" : 0.5
    },
    "alphaMode" : "OPAQUE",
    "doubleSided" : false
  }, {
    "name" : "default-material",
    "pbrMetallicRoughness" : {
      "baseColorFactor" : [ 1.0, 1.0, 1.0, 1.0 ],
      "metallicFactor" : 0.0,
      "roughnessFactor" : 0.5
    },
    "alphaMode" : "OPAQUE",
    "doubleSided" : false
  }, {
    "name" : "default-material",
    "pbrMetallicRoughness" : {
      "baseColorFactor" : [ 1.0, 1.0, 1.0, 1.0 ],
      "metallicFactor" : 0.0,
      "roughnessFactor" : 0.5
    },
    "alphaMode" : "OPAQUE",
    "doubleSided" : false
  }, {
    "name" : "default-material",
    "pbrMetallicRoughness" : {
      "baseColorFactor" : [ 1.0, 1.0, 1.0, 1.0 ],
      "metallicFactor" : 0.0,
      "roughnessFactor" : 0.5
    },
    "alphaMode" : "OPAQUE",
    "doubleSided" : false
  }, {
    "name" : "default-material",
    "pbrMetallicRoughness" : {
      "baseColorFactor" : [ 1.0, 1.0, 1.0, 1.0 ],
      "metallicFactor" : 0.0,
      "roughnessFactor" : 0.5
    },
    "alphaMode" : "OPAQUE",
    "doubleSided" : false
  } ],
  "meshes" : [ {
    "primitives" : [ {
      "attributes" : {
        "POSITION" : 1,
        "_BATCHID" : 4,
        "TEXCOORD_0" : 3,
        "NORMAL" : 2
      },
      "indices" : 0,
      "material" : 0,
      "mode" : 4
    } ]
  } ],
  "nodes" : [ {
    "name" : "root",
    "children" : [ 1 ],
    "matrix" : [ 1.0, 0.0, 0.0, 0.0, 0.0, 1.0, 0.0, 0.0, 0.0, 0.0, 1.0, 0.0, 0.0, 0.0, 0.0, 1.0 ]
  }, {
    "name" : "grid-node",
    "mesh" : 0
  } ],
  "scene" : 0,
  "scenes" : [ {
    "nodes" : [ 0 ]
  } ]
}